<?xml version="1.0" encoding="UTF-8"?>
<svg id="Capa_2" data-name="Capa 2" xmlns="http://www.w3.org/2000/svg" viewBox="0 0 31.79 8.93">
  <defs>
    <style>
      .cls-1 {
        fill: #ffcc03;
      }
    </style>
  </defs>
  <g id="Capa_1-2" data-name="Capa 1">
    <g>
      <rect class="cls-1" x="2.11" y="5.45" width=".06" height=".01"/>
      <rect class="cls-1" x="6.97" y="5.45" width=".06" height=".01"/>
      <polygon class="cls-1" points="6.67 .86 6.61 .86 6.6 .85 6.66 .85 6.67 .86"/>
      <rect class="cls-1" x="2.11" y="2.83" width=".06" height=".65"/>
      <path class="cls-1" d="M7.43,2.82h0s-.06.01-.06.01h0s.06-.01.06-.01Z"/>
      <path class="cls-1" d="M31.58,4.8h.2c0-.11,0-.22,0-.33s0-.22,0-.33h-.2c-.01-.23-.03-.45-.07-.66-.03-.23-.08-.44-.15-.65h-.01s.06-.01.06-.01c-.06-.23-.15-.44-.26-.65h-.2c-.11-.24-.25-.46-.42-.66h.29c-.07-.1-.15-.19-.24-.28-.13-.14-.27-.26-.41-.37h-.16s-.2,0-.2,0c-.37-.29-.79-.51-1.25-.65-.44-.13-.91-.2-1.43-.2s-.99.07-1.42.2c-.46.14-.88.36-1.25.65h.2-.01s.15,0,.15,0c-.14.11-.28.23-.41.37-.09.09-.17.18-.24.28h-.29c-.17.2-.31.43-.43.66h.2c-.11.21-.2.42-.27.65h-.06c-.07.21-.12.43-.16.66-.04.21-.06.43-.07.66h.2c-.01.11-.01.22-.01.33s0,.22.01.33h-.2c.01.23.03.44.07.65h0s.16.01.16.01c.04.23.08.44.15.65h-.15c.07.23.16.45.27.66h-.49c.12.23.26.45.42.65h.49c.08.1.16.2.25.29.13.14.27.26.42.37h-.2c.38.3.81.52,1.28.66.42.13.89.19,1.39.19s.97-.06,1.4-.19c.47-.14.9-.36,1.28-.66h.2c.15-.11.29-.23.42-.37.09-.09.17-.19.24-.29h-.49c.17-.2.31-.42.42-.65h.49c.11-.21.2-.43.27-.66h.15c.08-.21.12-.42.16-.65h-.16.01c.03-.22.05-.43.06-.66ZM30.1,4.8h-.2c-.01.23-.04.45-.09.65h0s.16.01.16.01c-.05.24-.13.45-.22.65h-.16c-.1.21-.22.41-.37.58-.02.03-.05.06-.08.08h-.49c-.3.33-.68.54-1.12.65h.49c-.21.05-.44.08-.69.08s-.47-.03-.68-.08h-.49c-.43-.11-.81-.32-1.11-.65h.49s-.06-.05-.08-.08c-.15-.17-.27-.37-.37-.58h.16c-.11-.2-.18-.42-.24-.65h-.16c-.04-.22-.07-.43-.09-.66h.2c-.01-.11-.01-.22-.01-.33s0-.23.01-.33h-.2c.02-.24.05-.46.1-.66.05-.24.12-.45.22-.65h.01s.06-.01.06-.01c.1-.21.22-.4.37-.57.02-.03.05-.06.08-.08h-.2c.3-.33.68-.55,1.11-.66h.29c.21-.05.44-.08.68-.08s.48.03.69.08h-.29c.44.11.82.33,1.12.66h.2s.06.05.08.08c.15.17.27.36.37.57h-.06c.1.21.17.42.22.66.05.21.08.43.09.66h.2c.01.11.01.22.01.33s0,.23-.01.33Z"/>
      <rect class="cls-1" x=".49" y="5.45" width=".06" height=".01"/>
      <path class="cls-1" d="M4.84,5.46h-.06s-.03-.01-.05-.01h.06s.03,0,.05.01Z"/>
      <rect class="cls-1" x=".49" y="5.45" width=".06" height=".01"/>
      <path class="cls-1" d="M4.84,5.46h-.06s-.03-.01-.05-.01h.06s.03,0,.05.01Z"/>
      <rect class="cls-1" x=".49" y="2.82" width=".06" height=".66"/>
      <path class="cls-1" d="M5.77,2.82h0s-.06.01-.06.01h0s.06-.01.06-.01Z"/>
      <path class="cls-1" d="M5.77,2.82h0s-.06.01-.06.01h0s.06-.01.06-.01Z"/>
      <path class="cls-1" d="M22.45,6.11c.01.06.01.12.01.19,0,.16-.01.32-.04.47h-.49c-.03.24-.1.45-.19.65h.49c-.12.25-.28.47-.49.66h-.2c-.06.06-.12.11-.19.16-.29.22-.63.39-1.03.5-.44.13-.94.19-1.51.19s-1.1-.07-1.54-.19c-.46-.14-.84-.33-1.16-.59-.03-.02-.05-.04-.07-.07h.2c-.22-.19-.4-.41-.54-.66h-.49c-.11-.2-.19-.41-.25-.65h.49c-.05-.2-.08-.42-.09-.66h.15c-.01-.06-.01-.12-.01-.19h1.6c0,.07,0,.13.02.19h-.16c.01.25.06.47.16.66h-.49c.08.19.21.34.37.46.1.08.22.14.36.19h.49c.32.14.72.2,1.2.2.45,0,.81-.06,1.09-.2h-.49c.07-.03.14-.07.2-.11.19-.14.32-.32.38-.54h.49c.04-.11.06-.24.06-.38,0-.1-.01-.19-.03-.28h.16c-.05-.2-.17-.36-.35-.49-.08-.06-.18-.11-.31-.16h-.15s-.02-.01-.03-.01c-.26-.11-.61-.21-1.04-.3l-.72-.14c-.3-.06-.57-.13-.82-.21h.2c-.49-.17-.89-.39-1.19-.66h-.2c-.22-.19-.39-.41-.51-.66-.1-.2-.16-.41-.2-.65h0s.06-.01.06-.01c-.02-.13-.03-.26-.03-.4,0-.09,0-.17.01-.25h-.2c.02-.24.08-.46.16-.66h.29c.1-.24.25-.46.44-.65h-.15.01s-.2,0-.2,0c.07-.07.14-.13.22-.19.25-.2.55-.35.89-.46.42-.13.9-.2,1.44-.2.59,0,1.11.07,1.55.2.4.12.73.29,1.01.52.05.04.1.08.14.13h.21s.15,0,.15,0c.2.19.36.4.48.65h-.29c.1.2.17.42.23.66h.2c.03.18.05.37.06.57h-1.57c-.01-.22-.05-.41-.13-.57h-.2c-.07-.21-.2-.38-.36-.51-.07-.06-.16-.11-.25-.15h.29c-.29-.13-.67-.2-1.15-.2-.41,0-.74.06-.99.2h-.29s-.1.05-.15.08c-.21.14-.33.34-.37.58h.2c-.01.06-.02.13-.02.2,0,.17.03.32.09.45h-.06s.01.01.01.01c.05.13.14.24.26.33.16.12.4.23.72.32.17.06.37.1.59.15l.74.14c.5.1.93.23,1.29.37h.2c.36.16.65.33.88.53.05.04.09.08.13.13h-.2c.17.18.31.4.39.65h0s.16.01.16.01c.08.2.12.41.13.65h-.16Z"/>
      <rect class="cls-1" x=".49" y=".85" width=".06" height="0"/>
      <path class="cls-1" d="M7.4,2.17h-.2c-.03-.24-.11-.46-.21-.66h.29c-.13-.25-.3-.46-.52-.65h-.16s-.2,0-.2,0h-.01c-.53-.44-1.27-.65-2.22-.65H.29v.65h.26s.09,0,.09,0v.65h-.29v.66h.2v1.31h-.06v.66h.2v.66h-.2v.65h.06s.09.01.09.01v.65h-.15v.66h-.49v.65h.49v.66h-.2v.66h1.62v-.66h.2v-.66h-.49v-.65h.49v-.66h.15v-.65h-.15v-.07h2.11c.19,0,.36.02.51.06h.06s.03,0,.05.01h.1c.19.04.34.13.45.24.11.1.18.23.25.41h-.15c.05.18.09.4.1.66h-.49s.03.65.03.65h.49v.3c.01.13.02.25.03.36h-.2c.03.27.1.49.2.66h1.67c-.12-.18-.19-.4-.23-.66h.2c-.02-.1-.03-.22-.03-.34l-.02-.32h-.49l-.03-.65h.49l-.02-.3c-.01-.13-.02-.25-.03-.36h.16c-.04-.25-.1-.47-.19-.65h-.16c-.03-.07-.06-.12-.09-.17-.13-.2-.32-.36-.56-.49h.2c-.11-.06-.23-.11-.37-.15.35-.12.63-.29.85-.51h-.2c.19-.18.34-.41.43-.66.08-.2.12-.41.14-.65h0s.06-.01.06-.01c.01-.07.01-.14.01-.21,0-.16-.01-.3-.04-.44ZM5.77,2.82h0s-.06.01-.06.01c-.01.26-.06.47-.16.65-.05.12-.13.22-.22.3-.25.23-.6.34-1.06.34h-2.16v-1.29h.06v-.66h-.2v-.64h2.1c.48,0,.85.11,1.11.32.11.09.19.2.25.32h.2c.09.17.14.38.14.62v.03Z"/>
      <rect class="cls-1" x=".49" y=".85" width=".06" height="0"/>
      <polygon class="cls-1" points="9.95 1.65 9.95 2.17 10.15 2.17 10.15 2.82 10.09 2.82 10.09 3.66 14.33 3.66 14.33 4.14 14.53 4.14 14.53 4.8 14.33 4.8 14.33 5.06 10.09 5.06 10.09 5.46 10.25 5.46 10.25 6.11 10.09 6.11 10.09 6.77 9.6 6.77 9.6 7.29 14.26 7.29 14.26 7.42 14.75 7.42 14.75 8.08 14.55 8.08 14.55 8.74 8.27 8.74 8.27 8.08 8.47 8.08 8.47 7.42 7.98 7.42 7.98 6.77 8.47 6.77 8.47 6.11 8.63 6.11 8.63 5.46 8.47 5.46 8.47 4.8 8.67 4.8 8.67 4.14 8.47 4.14 8.47 2.82 8.53 2.82 8.53 2.17 8.33 2.17 8.33 1.51 8.62 1.51 8.62 .86 8.47 .86 8.47 .85 8.27 .85 8.27 .2 14.57 .2 14.57 .85 14.77 .85 14.77 .86 14.92 .86 14.92 1.51 14.63 1.51 14.63 1.65 9.95 1.65"/>
    </g>
  </g>
</svg>